<?xml version="1.0" encoding="UTF-8"?>
<svg version="1.1" xmlns="http://www.w3.org/2000/svg" width="225" height="225">
<path d="M0 0 C74.25 0 148.5 0 225 0 C225 74.25 225 148.5 225 225 C150.75 225 76.5 225 0 225 C0 150.75 0 76.5 0 0 Z " fill="#7E222A" transform="translate(0,0)"/>
<path d="M0 0 C1.12148437 -0.01675781 2.24296875 -0.03351563 3.3984375 -0.05078125 C7.78055873 0.44260528 10.38494808 1.78748665 13.171875 5.21484375 C13.56890625 5.88644531 13.9659375 6.55804688 14.375 7.25 C14.78234375 7.91902344 15.1896875 8.58804688 15.609375 9.27734375 C18.25381676 14.5763982 17.8800675 20.20697539 17.9375 26 C17.96650391 26.95583984 17.99550781 27.91167969 18.02539062 28.89648438 C18.09727145 37.00795881 16.1335712 43.28385046 11.1875 49.75 C7.16608917 53.77141083 4.17816952 54.41932705 -1.375 54.625 C-5.59098009 54.49383618 -8.23993024 54.35799634 -11.375 51.3125 C-18.09964648 40.10475586 -19.35756045 27.56787286 -16.62109375 14.79296875 C-13.58653429 6.09389829 -9.82296914 0.03371729 0 0 Z " fill="#F9F5F5" transform="translate(84.375,138.6875)"/>
<path d="M0 0 C1.21816406 0.03480469 1.21816406 0.03480469 2.4609375 0.0703125 C3.68683594 0.09738281 3.68683594 0.09738281 4.9375 0.125 C5.87722656 0.15980469 5.87722656 0.15980469 6.8359375 0.1953125 C6.88222375 8.50532042 6.9177877 16.81527471 6.93956184 25.12537956 C6.95001093 28.98386047 6.9641905 32.84225335 6.98681641 36.70068359 C7.0085049 40.42243442 7.02049764 44.14410044 7.02569199 47.86590958 C7.02939495 49.28772441 7.03662569 50.70953447 7.04739761 52.13131332 C7.06185869 54.11858364 7.06275396 56.10593881 7.06298828 58.09326172 C7.0674295 59.22577362 7.07187073 60.35828552 7.07644653 61.52511597 C6.8359375 64.1953125 6.8359375 64.1953125 4.8359375 66.1953125 C2.05078125 66.6953125 2.05078125 66.6953125 -1.1640625 66.1953125 C-3.28401847 64.21708901 -4.87342017 62.47174471 -6.6015625 60.1953125 C-7.55415151 59.00347766 -8.50727665 57.81207112 -9.4609375 56.62109375 C-9.91919922 56.03666504 -10.37746094 55.45223633 -10.84960938 54.85009766 C-12.61274189 52.63046316 -14.47143496 50.50368808 -16.3515625 48.3828125 C-17.28925594 47.32048322 -18.22679201 46.25801497 -19.1640625 45.1953125 C-19.20144531 46.44828125 -19.23882812 47.70125 -19.27734375 48.9921875 C-19.34301135 50.64325871 -19.40945843 52.29429905 -19.4765625 53.9453125 C-19.51040039 55.1828125 -19.51040039 55.1828125 -19.54492188 56.4453125 C-19.70381941 60.02772969 -19.81923566 62.56102539 -21.55078125 65.74609375 C-23.1640625 67.1953125 -23.1640625 67.1953125 -25.6640625 67.6328125 C-28.60684031 67.11782638 -29.32751072 66.49095101 -31.1640625 64.1953125 C-31.46233772 61.27765554 -31.58438956 58.57787492 -31.5625 55.66015625 C-31.56537018 54.82569473 -31.56824036 53.99123322 -31.57119751 53.13148499 C-31.57323791 51.36881837 -31.56770971 49.6061291 -31.55517578 47.84350586 C-31.53910106 45.13929914 -31.55503507 42.43658245 -31.57421875 39.73242188 C-31.57223671 38.02083002 -31.56839384 36.3092391 -31.5625 34.59765625 C-31.56857269 33.78618637 -31.57464539 32.97471649 -31.5809021 32.13865662 C-31.55224609 29.86303711 -31.55224609 29.86303711 -31.1640625 26.1953125 C-28.1640625 24.1953125 -28.1640625 24.1953125 -24.9765625 24.0078125 C-19.27446858 25.78387454 -16.76769291 29.60607378 -13.1640625 34.1953125 C-11.74720599 35.9683373 -10.32914672 37.74040135 -8.91015625 39.51171875 C-7.66142121 41.07288698 -6.41271102 42.63407508 -5.1640625 44.1953125 C-5.14424316 42.93348145 -5.12442383 41.67165039 -5.10400391 40.37158203 C-5.02807485 35.70112758 -4.93933838 31.0309899 -4.84667969 26.36083984 C-4.80833729 24.33746584 -4.77349379 22.31402244 -4.7421875 20.29052734 C-4.69665081 17.38614047 -4.63863841 14.48223356 -4.578125 11.578125 C-4.56657379 10.66974884 -4.55502258 9.76137268 -4.54312134 8.82546997 C-4.52325165 7.98474945 -4.50338196 7.14402893 -4.48291016 6.27783203 C-4.46958649 5.53614777 -4.45626282 4.7944635 -4.4425354 4.03030396 C-4.00306127 1.1343982 -2.85927944 0.25805771 0 0 Z " fill="#FBF6F6" transform="translate(137.1640625,125.8046875)"/>
<path d="M0 0 C1.07894531 0.00483398 1.07894531 0.00483398 2.1796875 0.00976562 C2.88351563 -0.00634766 3.58734375 -0.02246094 4.3125 -0.0390625 C9.07573172 -0.0434893 12.28221851 0.75894268 16.4296875 3.32226562 C20.02759772 7.29237345 20.71502407 10.93091644 20.65625 16.25976562 C20.1835786 20.56270523 17.77467243 23.80478823 15.4296875 27.32226562 C16.04013189 31.51775974 18.02875206 35.44432366 19.6796875 39.32226562 C19.96714844 40.03382812 20.25460938 40.74539062 20.55078125 41.47851562 C22.76968277 46.67210171 25.24970344 49.73227359 30.4296875 52.32226562 C33.80297502 52.63810009 37.17703115 52.83360324 40.55859375 53.04101562 C43.4296875 53.32226562 43.4296875 53.32226562 44.4296875 54.32226562 C44.47049533 56.32184926 44.47223106 58.32271816 44.4296875 60.32226562 C39.60618738 62.89479902 34.7512662 62.8560917 29.4296875 62.32226562 C20.77494743 59.58159794 16.26256376 54.79256624 11.875 47.16601562 C9.81918247 43.12105573 8.18169854 38.94538819 6.60546875 34.69335938 C6.21746094 33.91089844 5.82945313 33.1284375 5.4296875 32.32226562 C4.4396875 31.99226563 3.4496875 31.66226563 2.4296875 31.32226562 C2.45289062 32.15371094 2.47609375 32.98515625 2.5 33.84179688 C2.51804687 34.92847656 2.53609375 36.01515625 2.5546875 37.13476562 C2.57789062 38.21371094 2.60109375 39.29265625 2.625 40.40429688 C2.4296875 43.32226562 2.4296875 43.32226562 0.4296875 46.32226562 C-3.1328125 46.57226562 -3.1328125 46.57226562 -6.5703125 46.32226562 C-8.0976336 44.79494452 -7.70483641 43.42222539 -7.71557617 41.29321289 C-7.72195602 40.43885147 -7.72833588 39.58449005 -7.73490906 38.70423889 C-7.73602188 37.77510178 -7.7371347 36.84596466 -7.73828125 35.88867188 C-7.74160965 34.94040024 -7.74493805 33.9921286 -7.74836731 33.01512146 C-7.75344069 31.00512173 -7.75577551 28.99511355 -7.75561523 26.98510742 C-7.75780072 23.90138943 -7.77594933 20.81802956 -7.79492188 17.734375 C-7.79785584 15.78580852 -7.79984062 13.83724034 -7.80078125 11.88867188 C-7.80796677 10.96155899 -7.81515228 10.03444611 -7.82255554 9.07923889 C-7.81947891 8.22172531 -7.81640228 7.36421173 -7.81323242 6.48071289 C-7.81465744 5.72427994 -7.81608246 4.96784698 -7.81755066 4.18849182 C-7.21297079 -0.37505452 -3.82594049 0.03940575 0 0 Z " fill="#F9F4F3" transform="translate(85.5703125,87.677734375)"/>
<path d="M0 0 C-2.64 10.56 -5.28 21.12 -8 32 C-5.69 31.67 -3.38 31.34 -1 31 C0.51294288 29.06402968 0.51294288 29.06402968 1 27 C2.98 27 4.96 27 7 27 C8.75734451 31.97361654 10.32584613 36.7415998 11 42 C10.34 42 9.68 42 9 42 C8.67 42.99 8.34 43.98 8 45 C7.67 45 7.34 45 7 45 C7 42.36 7 39.72 7 37 C5.52031676 37.14049518 4.04125484 37.28754826 2.5625 37.4375 C1.73878906 37.51871094 0.91507813 37.59992188 0.06640625 37.68359375 C-1.98662025 37.78930815 -1.98662025 37.78930815 -3 39 C-3.12197808 40.38050858 -3.17768899 41.76697647 -3.20532227 43.15258789 C-3.22526749 44.03342545 -3.24521271 44.914263 -3.26576233 45.8217926 C-3.29083107 47.25772011 -3.29083107 47.25772011 -3.31640625 48.72265625 C-3.33718735 49.69786728 -3.35796844 50.67307831 -3.37937927 51.67784119 C-3.44498412 54.8059863 -3.50381028 57.93421822 -3.5625 61.0625 C-3.60567483 63.1777435 -3.64928877 65.29297809 -3.69335938 67.40820312 C-3.80067655 72.60537587 -3.9024222 77.80263577 -4 83 C-6.76868675 80.28275746 -9.44260021 77.61160263 -11.7890625 74.51953125 C-12.25570312 73.91302734 -12.72234375 73.30652344 -13.203125 72.68164062 C-14.15955241 71.42435898 -15.11526955 70.16653674 -16.0703125 68.90820312 C-18.24278627 66.08700455 -20.01215487 63.99189675 -23 62 C-26.465 62.495 -26.465 62.495 -30 63 C-30.33 75.54 -30.66 88.08 -31 101 C-32.81247921 97.37504158 -33.24864042 96.4048294 -33.1953125 92.671875 C-33.18886719 91.87265625 -33.18242188 91.0734375 -33.17578125 90.25 C-33.15902344 89.425 -33.14226562 88.6 -33.125 87.75 C-33.11597656 86.90953125 -33.10695313 86.0690625 -33.09765625 85.203125 C-33.07415817 83.13529396 -33.03828908 81.06761005 -33 79 C-33.33 79 -33.66 79 -34 79 C-34.17015625 77.77023438 -34.3403125 76.54046875 -34.515625 75.2734375 C-34.75962616 73.64050668 -35.0044621 72.00770045 -35.25 70.375 C-35.35957031 69.56675781 -35.46914062 68.75851563 -35.58203125 67.92578125 C-36.40845208 62.57579375 -37.77444796 59.33183642 -41 55 C-41 54.34 -41 53.68 -41 53 C-45.52381127 50.95698846 -50.16371695 49.99043705 -55 49 C-55 47.68 -55 46.36 -55 45 C-54.360625 44.87625 -53.72125 44.7525 -53.0625 44.625 C-52.381875 44.41875 -51.70125 44.2125 -51 44 C-49.64908472 41.29816945 -49.66141942 38.88191794 -49.4375 35.875 C-49.35371094 34.77929688 -49.26992187 33.68359375 -49.18359375 32.5546875 C-49.12300781 31.71164063 -49.06242187 30.86859375 -49 30 C-47.12060547 30.26318359 -47.12060547 30.26318359 -45 31 C-43.90673828 32.65478516 -43.90673828 32.65478516 -43.0703125 34.7890625 C-42.74933594 35.56636719 -42.42835937 36.34367187 -42.09765625 37.14453125 C-41.77667969 37.96308594 -41.45570312 38.78164062 -41.125 39.625 C-37.93147477 47.73366282 -34.2378549 55.0978582 -26 59 C-20.0093329 60.83154153 -13.02276805 60.60607148 -7 59 C-7.08378906 58.31292969 -7.16757813 57.62585938 -7.25390625 56.91796875 C-7.40666016 55.56638672 -7.40666016 55.56638672 -7.5625 54.1875 C-7.66691406 53.29417969 -7.77132812 52.40085938 -7.87890625 51.48046875 C-8 49 -8 49 -7 46 C-7.99 45.67 -8.98 45.34 -10 45 C-10.33 44.01 -10.66 43.02 -11 42 C-10.34 42 -9.68 42 -9 42 C-9.495 38.535 -9.495 38.535 -10 35 C-12.97 34.67 -15.94 34.34 -19 34 C-19.09765625 27.84765625 -19.09765625 27.84765625 -19 26 C-18 25 -18 25 -16.15234375 24.90234375 C-14.1015625 24.93489583 -12.05078125 24.96744792 -10 25 C-10.495 21.04 -10.495 21.04 -11 17 C-12.134375 16.855625 -13.26875 16.71125 -14.4375 16.5625 C-18 16 -18 16 -19 15 C-19.14115161 12.32941149 -19.04247107 9.67567762 -19 7 C-12.565 6.505 -12.565 6.505 -6 6 C-6 4.02 -6 2.04 -6 0 C-4 -1 -4 -1 0 0 Z " fill="#752530" transform="translate(137,89)"/>
<path d="M0 0 C4.10244581 2.4392921 6.79189252 5.81317755 8.3125 10.375 C9.19554648 23.17917399 2.27195336 35.93581996 -4.6875 46.375 C-7.2890625 46.66796875 -7.2890625 46.66796875 -10.3125 46.5625 C-11.81683594 46.52189453 -11.81683594 46.52189453 -13.3515625 46.48046875 C-14.12242188 46.44566406 -14.89328125 46.41085938 -15.6875 46.375 C-14.99988981 42.71935091 -13.43300455 39.85632728 -11.625 36.625 C-11.07714844 35.64015625 -10.52929688 34.6553125 -9.96484375 33.640625 C-9.54332031 32.89296875 -9.12179688 32.1453125 -8.6875 31.375 C-10.29625 31.0346875 -10.29625 31.0346875 -11.9375 30.6875 C-16.13942071 29.21682775 -17.41485318 28.13360821 -19.6875 24.375 C-21.55434319 18.61890017 -21.53598246 12.63645262 -19.0625 7.125 C-14.61612054 -0.77276492 -8.37749251 -1.94825407 0 0 Z " fill="#F8F7F8" transform="translate(134.6875,32.625)"/>
<path d="M0 0 C3.00632543 1.52227071 4.91476057 3.23544677 6.90625 5.93359375 C10.16479312 16.28426014 6.69615053 25.0219898 1.95703125 34.3046875 C-3.52760976 44.80495351 -3.52760976 44.80495351 -5.03125 46.30859375 C-6.88412502 46.38085877 -8.73958878 46.39240595 -10.59375 46.37109375 C-11.60566406 46.36207031 -12.61757812 46.35304687 -13.66015625 46.34375 C-14.83384766 46.32634766 -14.83384766 46.32634766 -16.03125 46.30859375 C-15.24834234 42.28606819 -13.35873639 39.55964306 -11.08984375 36.2109375 C-9.7881239 34.23452561 -9.7881239 34.23452561 -10.03125 31.30859375 C-11.124375 30.91671875 -12.2175 30.52484375 -13.34375 30.12109375 C-15.98323712 29.17486252 -16.98222369 28.37145088 -18.734375 26.125 C-21.3688766 20.40368778 -21.14521833 12.93198535 -19.3046875 6.9453125 C-15.26467319 -0.72414556 -7.93291248 -2.70024136 0 0 Z " fill="#F9F7F6" transform="translate(103.03125,32.69140625)"/>
<path d="M0 0 C3.23939656 1.73539102 5.42321134 3.42321134 8 6 C8.125 8.625 8.125 8.625 8 11 C4.6853333 13.02907167 2.5684021 13.12742133 -1.25 12.625 C-2.14203125 12.51414063 -3.0340625 12.40328125 -3.953125 12.2890625 C-4.62859375 12.19367188 -5.3040625 12.09828125 -6 12 C-5.57626107 16.94362083 -3.5060433 18.64639336 0 22 C8.70285056 32.42470487 8.70285056 32.42470487 9.375 38.25 C8.91051471 42.89485287 7.87372454 46.28911201 5 50 C1.34965412 52.82684052 -2.06965987 53.88771757 -6.625 54.4375 C-11.64717807 53.78647692 -14.73371644 52.26628356 -18.3125 48.6875 C-20.17661191 45.71872918 -20.67767966 43.46494363 -21 40 C-17.88229079 38.15246862 -15.61884589 37.45717312 -12 38 C-11.34 38.680625 -10.68 39.36125 -10 40.0625 C-9.01 41.0215625 -9.01 41.0215625 -8 42 C-5.29294488 41.85974801 -5.29294488 41.85974801 -3 41 C-2.5579464 38.74646147 -2.5579464 38.74646147 -3 36 C-4.69505669 33.88117913 -6.32975568 32.07395435 -8.25 30.1875 C-17.66207499 20.3780063 -17.66207499 20.3780063 -18.17578125 13.72265625 C-17.89854677 7.97721068 -16.07080726 4.97151928 -12 1 C-8.29493599 -0.852532 -4.04344769 -0.46512052 0 0 Z " fill="#F9F6F6" transform="translate(166,139)"/>
<path d="M0 0 C3.68623011 1.61272567 4.75355 2.630325 7 6 C7.125 8.6875 7.125 8.6875 7 11 C5.58566794 11.2236337 4.16832382 11.42826476 2.75 11.625 C1.96109375 11.74101563 1.1721875 11.85703125 0.359375 11.9765625 C-2.34167893 12.00339416 -3.67489308 11.30166242 -6 10 C-6.66 10 -7.32 10 -8 10 C-10.25010269 19.62320703 -10.77307904 27.4675408 -8 37 C-7.07316406 36.91621094 -6.14632812 36.83242187 -5.19140625 36.74609375 C-3.39509766 36.59333984 -3.39509766 36.59333984 -1.5625 36.4375 C0.22994141 36.28087891 0.22994141 36.28087891 2.05859375 36.12109375 C3.02925781 36.08113281 3.99992187 36.04117188 5 36 C6 37 6 37 6.0625 40.3125 C5 44 5 44 3.359375 45.3515625 C-0.75465774 47.53419819 -4.30519006 48.7144276 -9 48 C-13.80557968 46.36610291 -15.84143663 44.33782318 -18.140625 40.01171875 C-22.04438782 30.87336488 -22.79974415 19.87009292 -19.4375 10.375 C-15.24986141 1.73708346 -9.58256066 -1.65664608 0 0 Z " fill="#F8F3F3" transform="translate(69,88)"/>
<path d="M0 0 C3.40514841 -0.51817476 5.22390367 -0.56611776 8.0456543 1.4921875 C10.7418101 4.95188924 11.44370294 8.33196935 12.39453125 12.5625 C12.59100754 13.39080322 12.78748383 14.21910645 12.98991394 15.07250977 C13.40084125 16.81918479 13.80469513 18.56753717 14.2019043 20.31738281 C14.8113098 22.99477092 15.44580784 25.66527804 16.08398438 28.3359375 C16.48066766 30.03610882 16.87589968 31.73661954 17.26953125 33.4375 C17.45900833 34.23551025 17.64848541 35.03352051 17.84370422 35.85571289 C18.68493668 39.61358066 19.13242619 42.31813649 18 46 C15.69 46 13.38 46 11 46 C8.91864693 40.70201036 7.28708387 35.54436129 6 30 C4.02 29.67 2.04 29.34 0 29 C-0.144375 29.639375 -0.28875 30.27875 -0.4375 30.9375 C-1 33 -1 33 -2 34 C-4.33297433 34.04092937 -6.66705225 34.04241723 -9 34 C-8.41067382 26.9426371 -6.96892893 20.43694029 -5.0625 13.625 C-4.66514648 12.14966797 -4.66514648 12.14966797 -4.25976562 10.64453125 C-2.26009475 3.39014213 -2.26009475 3.39014213 0 0 Z " fill="#F9F4F4" transform="translate(138,87)"/>
<path d="M0 0 C1.27423828 -0.00193359 1.27423828 -0.00193359 2.57421875 -0.00390625 C3.91419922 0.00189453 3.91419922 0.00189453 5.28125 0.0078125 C6.17457031 0.00394531 7.06789063 0.00007813 7.98828125 -0.00390625 C8.83777344 -0.00261719 9.68726562 -0.00132813 10.5625 0 C11.34689453 0.00112793 12.13128906 0.00225586 12.93945312 0.00341797 C14.78125 0.1328125 14.78125 0.1328125 15.78125 1.1328125 C15.90625 4.1328125 15.90625 4.1328125 15.78125 7.1328125 C14.78125 8.1328125 14.78125 8.1328125 12.27734375 8.23046875 C10.76333984 8.21306641 10.76333984 8.21306641 9.21875 8.1953125 C8.20683594 8.18628906 7.19492188 8.17726563 6.15234375 8.16796875 C4.97865234 8.15056641 4.97865234 8.15056641 3.78125 8.1328125 C4.11125 10.7728125 4.44125 13.4128125 4.78125 16.1328125 C5.915625 16.2771875 7.05 16.4215625 8.21875 16.5703125 C11.78125 17.1328125 11.78125 17.1328125 12.78125 18.1328125 C12.92240161 20.80340101 12.82372107 23.45713488 12.78125 26.1328125 C8.82125 26.6278125 8.82125 26.6278125 4.78125 27.1328125 C4.45125 29.7728125 4.12125 32.4128125 3.78125 35.1328125 C4.41933594 35.12121094 5.05742188 35.10960937 5.71484375 35.09765625 C6.54113281 35.08863281 7.36742188 35.07960937 8.21875 35.0703125 C9.04246094 35.05871094 9.86617187 35.04710937 10.71484375 35.03515625 C12.78125 35.1328125 12.78125 35.1328125 13.78125 36.1328125 C13.82217937 38.46578683 13.82366723 40.79986475 13.78125 43.1328125 C10.60731311 44.71978094 7.19950795 44.2759572 3.71875 44.2578125 C2.97302734 44.26167969 2.22730469 44.26554687 1.45898438 44.26953125 C-4.09211499 44.25944751 -4.09211499 44.25944751 -5.21875 43.1328125 C-5.3199192 40.04199785 -5.35843558 36.97398695 -5.3515625 33.8828125 C-5.35251923 32.95436523 -5.35347595 32.02591797 -5.35446167 31.06933594 C-5.35514355 29.10221285 -5.35328872 27.13508754 -5.34912109 25.16796875 C-5.34377295 22.14578224 -5.34906582 19.12374435 -5.35546875 16.1015625 C-5.35480797 14.19531217 -5.35352681 12.28906193 -5.3515625 10.3828125 C-5.35358673 9.47241211 -5.35561096 8.56201172 -5.35769653 7.62402344 C-5.32903261 0.00766295 -5.32903261 0.00766295 0 0 Z " fill="#FCF7F7" transform="translate(114.21875,87.8671875)"/>
<path d="M0 0 C1.12019531 -0.00128906 2.24039063 -0.00257812 3.39453125 -0.00390625 C4.57402344 -0.00003906 5.75351563 0.00382812 6.96875 0.0078125 C8.73798828 0.00201172 8.73798828 0.00201172 10.54296875 -0.00390625 C12.22326172 -0.00197266 12.22326172 -0.00197266 13.9375 0 C14.97326172 0.00112793 16.00902344 0.00225586 17.07617188 0.00341797 C19.46875 0.1328125 19.46875 0.1328125 20.46875 1.1328125 C20.65625 4.0703125 20.65625 4.0703125 20.46875 7.1328125 C18.46875 9.1328125 18.46875 9.1328125 14.84375 9.2578125 C13.73 9.2165625 12.61625 9.1753125 11.46875 9.1328125 C11.47660522 10.76077759 11.47660522 10.76077759 11.48461914 12.42163086 C11.50266836 16.43399232 11.51418171 20.44635017 11.52368164 24.45874023 C11.52872204 26.19800418 11.5355543 27.93726386 11.54418945 29.67651367 C11.55626792 32.17107187 11.56198108 34.66557423 11.56640625 37.16015625 C11.57156754 37.94245102 11.57672882 38.72474579 11.58204651 39.53074646 C11.58224226 41.39848364 11.53074694 43.26610454 11.46875 45.1328125 C11.13875 45.4628125 10.80875 45.7928125 10.46875 46.1328125 C7.82875 46.1328125 5.18875 46.1328125 2.46875 46.1328125 C2.46875 33.9228125 2.46875 21.7128125 2.46875 9.1328125 C0.48875 9.1328125 -1.49125 9.1328125 -3.53125 9.1328125 C-4.52125 8.4728125 -5.51125 7.8128125 -6.53125 7.1328125 C-6.78125 4.0703125 -6.78125 4.0703125 -6.53125 1.1328125 C-4.78579395 -0.61264355 -2.37000783 0.0025809 0 0 Z " fill="#FCFAF9" transform="translate(156.53125,87.8671875)"/>
<path d="M0 0 C3.63 0 7.26 0 11 0 C11 13.2 11 26.4 11 40 C8.75487738 41.12256131 7.48543351 41.13413762 5 41.125 C3.948125 41.12886719 3.948125 41.12886719 2.875 41.1328125 C1 41 1 41 -1 40 C-1.12803877 26.62706162 -0.79531165 13.34987408 0 0 Z " fill="#FCF8F8" transform="translate(52,152)"/>
<path d="M0 0 C4.875 0.875 4.875 0.875 6 2 C6.66466177 7.66711618 4.69649231 11.56363786 2.25 16.5 C1.90195313 17.23347656 1.55390625 17.96695313 1.1953125 18.72265625 C-3.02340438 27.45696267 -3.02340438 27.45696267 -6 31 C-8.796875 31.5859375 -8.796875 31.5859375 -11.75 31.375 C-12.73484375 31.32085937 -13.7196875 31.26671875 -14.734375 31.2109375 C-15.48203125 31.14132813 -16.2296875 31.07171875 -17 31 C-16.31238981 27.34435091 -14.74550455 24.48132728 -12.9375 21.25 C-12.38964844 20.26515625 -11.84179688 19.2803125 -11.27734375 18.265625 C-10.85582031 17.51796875 -10.43429688 16.7703125 -10 16 C-11.11375 15.71125 -12.2275 15.4225 -13.375 15.125 C-17 14 -17 14 -19 12 C-19 11.01 -19 10.02 -19 9 C-17.68 9 -16.36 9 -15 9 C-14.34 7.35 -13.68 5.7 -13 4 C-12.01 4.66 -11.02 5.32 -10 6 C-6.89143 6.23314275 -4.98586231 5.99528744 -2 5 C-0.78130071 2.49552484 -0.78130071 2.49552484 0 0 Z " fill="#F9F3F3" transform="translate(136,48)"/>
<path d="M0 0 C3.00632543 1.52227071 4.91476057 3.23544677 6.90625 5.93359375 C8.32967169 10.45505087 8.21951374 14.60909543 7.96875 19.30859375 C7.63875 19.30859375 7.30875 19.30859375 6.96875 19.30859375 C6.96875 16.33859375 6.96875 13.36859375 6.96875 10.30859375 C6.30875 10.30859375 5.64875 10.30859375 4.96875 10.30859375 C4.96875 9.31859375 4.96875 8.32859375 4.96875 7.30859375 C4.30875 7.30859375 3.64875 7.30859375 2.96875 7.30859375 C2.63875 6.64859375 2.30875 5.98859375 1.96875 5.30859375 C1.30875 5.30859375 0.64875 5.30859375 -0.03125 5.30859375 C-0.15242188 6.36820313 -0.27359375 7.4278125 -0.3984375 8.51953125 C-0.56725752 9.90760699 -0.73655308 11.29562494 -0.90625 12.68359375 C-1.02419922 13.73160156 -1.02419922 13.73160156 -1.14453125 14.80078125 C-1.8046875 20.08203125 -1.8046875 20.08203125 -4.03125 22.30859375 C-6.44921875 22.71484375 -6.44921875 22.71484375 -9.03125 22.30859375 C-10.83203125 20.33984375 -10.83203125 20.33984375 -12.34375 17.80859375 C-12.85550781 16.97328125 -13.36726563 16.13796875 -13.89453125 15.27734375 C-14.26964844 14.62765625 -14.64476563 13.97796875 -15.03125 13.30859375 C-18.0421862 15.31588455 -18.66141497 16.14743599 -20.03125 19.30859375 C-20.53328701 12.37769391 -20.28426838 7.94096944 -16.03125 2.30859375 C-11.51250193 -1.69372597 -5.5854054 -1.90118607 0 0 Z " fill="#FAF4F5" transform="translate(103.03125,32.69140625)"/>
<path d="M0 0 C2.5625 0.5625 2.5625 0.5625 5 2 C7.35124354 6.28899253 7.33336496 10.60109659 7.3125 15.375 C7.32861328 16.10460937 7.34472656 16.83421875 7.36132812 17.5859375 C7.36597005 22.78489835 6.40431344 26.37857027 4 31 C2 33 2 33 -0.625 33.125 C-1.40875 33.08375 -2.1925 33.0425 -3 33 C-7.09446083 25.90293456 -7.07883547 16.15608954 -5.43359375 8.29296875 C-3.61919492 2.41279661 -3.61919492 2.41279661 0 0 Z " fill="#77252C" transform="translate(84,149)"/>
<path d="M0 0 C2 3 2 3 2 7 C4.475 7.495 4.475 7.495 7 8 C7 9.32 7 10.64 7 12 C8.98 12 10.96 12 13 12 C13 12.33 13 12.66 13 13 C12.00419922 13.03867188 12.00419922 13.03867188 10.98828125 13.078125 C6.96968107 13.33625406 3.75463093 13.62268454 0.125 15.4375 C-2.98941207 19.19311455 -4.43461791 23.4175407 -6 28 C-6.33 27.34 -6.66 26.68 -7 26 C-7.66 25.67 -8.32 25.34 -9 25 C-8.979375 24.21625 -8.95875 23.4325 -8.9375 22.625 C-8.81315937 20.01885039 -8.81315937 20.01885039 -10 18 C-9.34 18 -8.68 18 -8 18 C-8 17.34 -8 16.68 -8 16 C-8.99 16 -9.98 16 -11 16 C-10.979375 16.969375 -10.95875 17.93875 -10.9375 18.9375 C-11 22 -11 22 -12 23 C-13.85287502 23.07226502 -15.70833878 23.0838122 -17.5625 23.0625 C-18.57441406 23.05347656 -19.58632813 23.04445312 -20.62890625 23.03515625 C-21.41136719 23.02355469 -22.19382813 23.01195312 -23 23 C-23 19.7 -23 16.4 -23 13 C-12.82142857 10.72321429 -12.82142857 10.72321429 -9 12 C-9 11.01 -9 10.02 -9 9 C-7.88625 8.62875 -6.7725 8.2575 -5.625 7.875 C-2.38621238 6.5205979 -2.10727559 6.23787197 -0.5625 2.8125 C-0.376875 1.884375 -0.19125 0.95625 0 0 Z " fill="#782830" transform="translate(75,126)"/>
<path d="M0 0 C1.98 0 3.96 0 6 0 C7.75734451 4.97361654 9.32584613 9.7415998 10 15 C9.34 15 8.68 15 8 15 C7.67 15.99 7.34 16.98 7 18 C6.67 18 6.34 18 6 18 C6 15.36 6 12.72 6 10 C4.54119891 10.14107747 3.08296449 10.28802415 1.625 10.4375 C0.81289062 10.51871094 0.00078125 10.59992188 -0.8359375 10.68359375 C-3.04272805 10.89090114 -3.04272805 10.89090114 -5 12 C-5.04898438 13.31355469 -5.09796875 14.62710938 -5.1484375 15.98046875 C-5.22349468 17.71616595 -5.29904123 19.45184203 -5.375 21.1875 C-5.42140625 22.48397461 -5.42140625 22.48397461 -5.46875 23.80664062 C-5.67345389 28.25895022 -5.93722933 31.94992587 -8 36 C-11.96 35.505 -11.96 35.505 -16 35 C-13.08235 33.0549 -11.37462715 32.54723683 -8 32 C-8.12568359 30.96939453 -8.12568359 30.96939453 -8.25390625 29.91796875 C-8.40666016 28.56638672 -8.40666016 28.56638672 -8.5625 27.1875 C-8.66691406 26.29417969 -8.77132812 25.40085938 -8.87890625 24.48046875 C-9 22 -9 22 -8 19 C-8.99 18.67 -9.98 18.34 -11 18 C-11.33 17.01 -11.66 16.02 -12 15 C-11.34 15 -10.68 15 -10 15 C-10.33 12.36 -10.66 9.72 -11 7 C-10.01 7 -9.02 7 -8 7 C-8 6.34 -8 5.68 -8 5 C-6.865625 4.731875 -5.73125 4.46375 -4.5625 4.1875 C-3.386875 3.795625 -2.21125 3.40375 -1 3 C-0.67 2.01 -0.34 1.02 0 0 Z " fill="#7A2B34" transform="translate(138,116)"/>
<path d="M0 0 C1.32 0 2.64 0 4 0 C4 0.99 4 1.98 4 3 C4.90093384 3.03758423 4.90093384 3.03758423 5.82006836 3.07592773 C8.52611437 3.1915528 11.23178283 3.31442936 13.9375 3.4375 C15.35579102 3.49647461 15.35579102 3.49647461 16.80273438 3.55664062 C18.15141602 3.61948242 18.15141602 3.61948242 19.52734375 3.68359375 C20.35999756 3.72025146 21.19265137 3.75690918 22.05053711 3.79467773 C24 4 24 4 25 5 C25.04080783 6.99958364 25.04254356 9.00045254 25 11 C19.65317579 13.85163958 13.69767221 13.74495228 7.8671875 12.5703125 C6 11.9375 6 11.9375 3 10 C1.5625 6.3125 1.5625 6.3125 1 3 C0.34 3 -0.32 3 -1 3 C-0.67 2.01 -0.34 1.02 0 0 Z " fill="#FBFAF9" transform="translate(105,137)"/>
<path d="M0 0 C0.66 0.99 1.32 1.98 2 3 C5.78853489 8.3329058 9.88964427 13.14163936 14.4609375 17.82421875 C16.32819832 20.46397579 16.47293396 21.83134245 16 25 C15.34 25.66 14.68 26.32 14 27 C10.09948098 26.69996008 8.67006246 25.67006246 6 23 C3.39388923 22.27802838 3.39388923 22.27802838 1 22 C1 18.66666667 1 15.33333333 1 12 C0.4740625 10.63875 0.4740625 10.63875 -0.0625 9.25 C-1.0894964 5.68974581 -0.84842373 3.56337965 0 0 Z " fill="#7C212C" transform="translate(148,155)"/>
<path d="M0 0 C0.99 0 1.98 0 3 0 C3 0.66 3 1.32 3 2 C2.67 2.33 2.34 2.66 2 3 C2.32074044 4.33641852 2.65864073 5.66869885 3 7 C4.23092328 14.29885496 4.01005637 21.43241542 3.75 28.8125 C3.72292969 30.03904297 3.69585937 31.26558594 3.66796875 32.52929688 C3.62800781 33.70169922 3.58804688 34.87410156 3.546875 36.08203125 C3.51432617 37.14655518 3.48177734 38.2110791 3.44824219 39.30786133 C3 42 3 42 0 45 C-0.495 27.675 -0.495 27.675 -1 10 C-4.63 10 -8.26 10 -12 10 C-12 9.01 -12 8.02 -12 7 C-6.555 6.505 -6.555 6.505 -1 6 C-0.67 4.02 -0.34 2.04 0 0 Z " fill="#74252D" transform="translate(64,142)"/>
<path d="M0 0 C3.23939656 1.73539102 5.42321134 3.42321134 8 6 C8.125 8.625 8.125 8.625 8 11 C5.69020717 12.454314 4.43888012 13.0474465 1.6875 12.75 C0.800625 12.5025 -0.08625 12.255 -1 12 C-2.258125 11.649375 -3.51625 11.29875 -4.8125 10.9375 C-5.864375 10.628125 -6.91625 10.31875 -8 10 C-7.34 9.01 -6.68 8.02 -6 7 C-6.3121764 4.35367713 -6.3121764 4.35367713 -7 2 C-10.45925163 3.2491742 -13.14693203 4.67527795 -16 7 C-12.92173732 -0.43913481 -7.34060856 -1.07677697 0 0 Z " fill="#F6ECEB" transform="translate(166,139)"/>
<path d="M0 0 C4.54060325 0.47795824 4.54060325 0.47795824 6.375 2.5625 C7.33638099 6.31188588 6.73628309 9.19587072 6 13 C4 15 4 15 1.5625 15.375 C-1 15 -1 15 -2.8125 13.375 C-4.36249345 10.27501311 -4.49023888 8.43167218 -4 5 C-2 2.125 -2 2.125 0 0 Z " fill="#702932" transform="translate(95,40)"/>
<path d="M0 0 C1.51516221 3.03032442 1.17028053 5.65114962 1 9 C0 11.9375 0 11.9375 -1 14 C-3.70313576 14.21917317 -5.43958382 14.32851983 -7.8125 12.9375 C-9.65621741 9.92932949 -9.30257262 7.44932782 -9 4 C-7.14479395 -1.03555928 -5.01300802 -1.41392534 0 0 Z " fill="#722A2E" transform="translate(132,41)"/>
<path d="M0 0 C1.81242052 -0.02687279 3.62495233 -0.04633715 5.4375 -0.0625 C6.44683594 -0.07410156 7.45617188 -0.08570313 8.49609375 -0.09765625 C11 0 11 0 12 1 C12.1328125 2.8125 12.1328125 2.8125 12.125 5 C12.12757812 5.721875 12.13015625 6.44375 12.1328125 7.1875 C12 9 12 9 11 10 C9.14712498 10.07226502 7.29166122 10.0838122 5.4375 10.0625 C4.42558594 10.05347656 3.41367187 10.04445312 2.37109375 10.03515625 C1.58863281 10.02355469 0.80617187 10.01195312 0 10 C0 6.7 0 3.4 0 0 Z " fill="#F4E7E8" transform="translate(52,139)"/>
<path d="M0 0 C6.89434889 5.24570025 6.89434889 5.24570025 8 10 C8.14059443 12.6913791 8.0915082 15.3005082 8 18 C7.01 17.34 6.02 16.68 5 16 C3.68 16 2.36 16 1 16 C0.34 17.32 -0.32 18.64 -1 20 C-1.66 20 -2.32 20 -3 20 C-2.67 16.37 -2.34 12.74 -2 9 C-0.68 8.67 0.64 8.34 2 8 C2 6.68 2 5.36 2 4 C0.68 3.34 -0.64 2.68 -2 2 C-1.34 2 -0.68 2 0 2 C0 1.34 0 0.68 0 0 Z " fill="#F3E7E9" transform="translate(135,33)"/>
<path d="M0 0 C0.70511719 0.31066406 1.41023438 0.62132812 2.13671875 0.94140625 C2.13671875 1.60140625 2.13671875 2.26140625 2.13671875 2.94140625 C3.10609375 3.18890625 4.07546875 3.43640625 5.07421875 3.69140625 C8.13671875 4.94140625 8.13671875 4.94140625 8.88671875 6.66015625 C9.2001269 9.52000561 8.76923105 11.87487487 8.19921875 14.69140625 C8.00457031 15.67625 7.80992188 16.66109375 7.609375 17.67578125 C7.45339844 18.4234375 7.29742187 19.17109375 7.13671875 19.94140625 C6.14671875 19.94140625 5.15671875 19.94140625 4.13671875 19.94140625 C4.08773437 19.28914063 4.03875 18.636875 3.98828125 17.96484375 C3.417785 10.75288917 3.417785 10.75288917 1.13671875 3.94140625 C-0.73075388 2.54902578 -0.73075388 2.54902578 -2.86328125 1.94140625 C-3.85328125 1.61140625 -4.84328125 1.28140625 -5.86328125 0.94140625 C-12.44092789 0.16381624 -16.41428978 1.23145461 -21.86328125 4.94140625 C-22.19328125 4.28140625 -22.52328125 3.62140625 -22.86328125 2.94140625 C-15.79560948 -3.06611475 -8.58762755 -3.17496189 0 0 Z " fill="#6B222B" transform="translate(106.86328125,32.05859375)"/>
<path d="M0 0 C0.33 0 0.66 0 1 0 C1.04935509 5.37514905 1.08569802 10.75016685 1.10986328 16.12548828 C1.11993484 17.95493873 1.13359276 19.78437303 1.15087891 21.61376953 C1.17507677 24.23994934 1.18647132 26.86591675 1.1953125 29.4921875 C1.20563507 30.31306854 1.21595764 31.13394958 1.22659302 31.97970581 C1.22699184 33.98789142 1.1224954 35.99555382 1 38 C-1 40 -1 40 -3.875 40.4375 C-7 40 -7 40 -9.375 37.5 C-9.91125 36.675 -10.4475 35.85 -11 35 C-9 33 -9 33 -5.375 32.875 C-3.704375 32.936875 -3.704375 32.936875 -2 33 C-0.85705686 29.57117059 -0.79035528 26.75917162 -0.68359375 23.14453125 C-0.6524221 22.15207649 -0.6524221 22.15207649 -0.62062073 21.13957214 C-0.55535273 19.03065148 -0.49634656 16.92160865 -0.4375 14.8125 C-0.39429311 13.38084685 -0.35067812 11.94920596 -0.30664062 10.51757812 C-0.19969494 7.01184846 -0.09836359 3.50598214 0 0 Z " fill="#F2E3E3" transform="translate(143,152)"/>
<path d="M0 0 C1.77965702 3.08473884 2.28436571 5.43932952 2.4140625 8.984375 C2.45273438 9.91894531 2.49140625 10.85351562 2.53125 11.81640625 C2.5621875 12.78449219 2.593125 13.75257812 2.625 14.75 C2.66367188 15.73355469 2.70234375 16.71710938 2.7421875 17.73046875 C2.83628426 20.15346037 2.92192328 22.57644796 3 25 C2.34 25 1.68 25 1 25 C-0.03758749 22.94587752 -1.0545034 20.88130395 -2.0625 18.8125 C-2.63097656 17.66394531 -3.19945313 16.51539062 -3.78515625 15.33203125 C-5.05391846 11.85211433 -5.21024733 10.43612935 -4 7 C-3.03886134 5.63838689 -2.04115841 4.30144802 -1 3 C-0.67 2.01 -0.34 1.02 0 0 Z " fill="#772932" transform="translate(105,106)"/>
<path d="M0 0 C0.66 0.33 1.32 0.66 2 1 C2 1.66 2 2.32 2 3 C2.66 3 3.32 3 4 3 C3.67 3.99 3.34 4.98 3 6 C2.84586124 8.87438548 2.74252715 11.72898986 2.68359375 14.60546875 C2.66281265 15.44467361 2.64203156 16.28387848 2.62062073 17.14851379 C2.55525982 19.82809294 2.49630286 22.50776969 2.4375 25.1875 C2.39430198 27.00456737 2.35068727 28.82162488 2.30664062 30.63867188 C2.1995922 35.09234799 2.09828681 39.54612226 2 44 C0.33325679 41.08175756 -0.2432008 39.02405621 -0.1953125 35.671875 C-0.18886719 34.87265625 -0.18242188 34.0734375 -0.17578125 33.25 C-0.15902344 32.425 -0.14226562 31.6 -0.125 30.75 C-0.11597656 29.90953125 -0.10695313 29.0690625 -0.09765625 28.203125 C-0.07415817 26.13529396 -0.03828908 24.06761005 0 22 C-0.33 22 -0.66 22 -1 22 C-1.66 16.72 -2.32 11.44 -3 6 C-2.01 5.34 -1.02 4.68 0 4 C-0.33 3.34 -0.66 2.68 -1 2 C-0.67 1.34 -0.34 0.68 0 0 Z " fill="#681823" transform="translate(104,146)"/>
<path d="M0 0 C0.33 0 0.66 0 1 0 C1.33 10.23 1.66 20.46 2 31 C2.82810826 27.68756695 3.09278428 25.34023421 3 22 C3.66 22 4.32 22 5 22 C5.64633275 23.77065111 6.2920483 25.54152753 6.9375 27.3125 C7.47697266 28.79169922 7.47697266 28.79169922 8.02734375 30.30078125 C8.70885965 32.1920563 9.3642811 34.09284329 10 36 C10.99 36.33 11.98 36.66 13 37 C12.67 37.66 12.34 38.32 12 39 C11.34 39 10.68 39 10 39 C10 38.34 10 37.68 10 37 C9.34 37 8.68 37 8 37 C6.375 34.5 6.375 34.5 5 32 C4.01 34.31 3.02 36.62 2 39 C1.34 38.67 0.68 38.34 0 38 C0 25.46 0 12.92 0 0 Z " fill="#834A4F" transform="translate(63,154)"/>
<path d="M0 0 C4.21814817 3.9700218 7.61227103 8.30840284 11 13 C10.34 14.32 9.68 15.64 9 17 C7.68 16.67 6.36 16.34 5 16 C5.33 17.98 5.66 19.96 6 22 C2.73991357 18.83047153 -0.22237877 15.60062011 -3 12 C-1.02 11.67 0.96 11.34 3 11 C3.33 10.01 3.66 9.02 4 8 C3.02770152 6.1051796 3.02770152 6.1051796 1.5625 4.3125 C1.08941406 3.68988281 0.61632812 3.06726563 0.12890625 2.42578125 C-0.24363281 1.95527344 -0.61617188 1.48476562 -1 1 C-0.67 0.67 -0.34 0.34 0 0 Z " fill="#F5E8EA" transform="translate(121,158)"/>
<path d="M0 0 C0.99 0.33 1.98 0.66 3 1 C3 3.31 3 5.62 3 8 C5.64 8.66 8.28 9.32 11 10 C11 21.88 11 33.76 11 46 C10.67 46 10.34 46 10 46 C8.80611597 22.21122564 8.80611597 22.21122564 9 12 C6.36 11.67 3.72 11.34 1 11 C0.01 7.7 -0.98 4.4 -2 1 C-1.34 0.67 -0.68 0.34 0 0 Z " fill="#925962" transform="translate(148,87)"/>
<path d="M0 0 C2.33294775 -0.04241723 4.66702567 -0.04092937 7 0 C8 1 8 1 8.3125 4.3125 C8 8 8 8 6.25 10.5 C5.5075 10.995 4.765 11.49 4 12 C2.68 11.67 1.36 11.34 0 11 C0 7.37 0 3.74 0 0 Z " fill="#802432" transform="translate(88,97)"/>
<path d="M0 0 C0.33 0 0.66 0 1 0 C1.33 14.19 1.66 28.38 2 43 C-1 41 -1 41 -1.43237305 39.05151367 C-1.45855713 38.26494385 -1.48474121 37.47837402 -1.51171875 36.66796875 C-1.5473291 35.79253418 -1.58293945 34.91709961 -1.61962891 34.01513672 C-1.64202637 33.0820166 -1.66442383 32.14889648 -1.6875 31.1875 C-1.72020996 30.24148926 -1.75291992 29.29547852 -1.78662109 28.32080078 C-1.87599691 25.54731302 -1.94285588 22.77432134 -2 20 C-2.01659668 19.26958496 -2.03319336 18.53916992 -2.05029297 17.78662109 C-2.25242697 7.75728091 -2.25242697 7.75728091 -1 4 C-0.65772583 2.66893378 -0.32248257 1.33599921 0 0 Z " fill="#5D1B22" transform="translate(108,90)"/>
<path d="M0 0 C0.33 0 0.66 0 1 0 C1 7.26 1 14.52 1 22 C-2.2308048 18.7691952 -5.04600875 15.86252908 -7.8125 12.3125 C-8.41707031 11.54550781 -9.02164063 10.77851563 -9.64453125 9.98828125 C-11 8 -11 8 -11 6 C-9.68 6.33 -8.36 6.66 -7 7 C-7 8.32 -7 9.64 -7 11 C-5.35 11 -3.7 11 -2 11 C-2 10.34 -2 9.68 -2 9 C-1.34 9 -0.68 9 0 9 C0 6.03 0 3.06 0 0 Z " fill="#6C222A" transform="translate(132,150)"/>
<path d="M0 0 C0.66 0.66 1.32 1.32 2 2 C4.32809543 2.68473395 6.66237777 3.34853151 9 4 C10.19625 4.515625 11.3925 5.03125 12.625 5.5625 C15.49133246 6.78334531 17.93971039 7.53631976 21 8 C21 8.99 21 9.98 21 11 C22.94009522 12.70532323 22.94009522 12.70532323 25 14 C23.68 14.33 22.36 14.66 21 15 C20.484375 14.195625 19.96875 13.39125 19.4375 12.5625 C16.35577739 9.32274034 14.34213214 9.40963511 10 9 C9.67 8.34 9.34 7.68 9 7 C8.34 7 7.68 7 7 7 C6.67 6.34 6.34 5.68 6 5 C6 5.99 6 6.98 6 8 C4.02 8.99 4.02 8.99 2 10 C0.35 7.03 -1.3 4.06 -3 1 C-2.01 0.67 -1.02 0.34 0 0 Z " fill="#772B34" transform="translate(99,142)"/>
<path d="M0 0 C2.64 0.33 5.28 0.66 8 1 C8 6.61 8 12.22 8 18 C5 15 5 15 4.8125 11.8125 C4.874375 10.884375 4.93625 9.95625 5 9 C4.01 9.33 3.02 9.66 2 10 C1.34 6.7 0.68 3.4 0 0 Z " fill="#7C252E" transform="translate(149,98)"/>
<path d="M0 0 C0.99 0.66 1.98 1.32 3 2 C3.22107787 4.7885289 3.28107535 7.34653181 3.1875 10.125 C3.17396484 10.87910156 3.16042969 11.63320312 3.14648438 12.41015625 C3.11109985 14.27374127 3.05729167 16.13695978 3 18 C1.02 18.99 1.02 18.99 -1 20 C-0.67 20.99 -0.34 21.98 0 23 C-0.9375 25.1875 -0.9375 25.1875 -2 27 C-3.00876352 22.86406958 -2.89085046 20.28202739 -1.546875 16.27734375 C-0.27703429 10.98936423 -0.28542198 5.41550642 0 0 Z " fill="#742831" transform="translate(102,162)"/>
<path d="M0 0 C10.68367497 8.73300398 10.68367497 8.73300398 11.375 13.6875 C11 16 11 16 9 18 C7.68 18 6.36 18 5 18 C6 15 6 15 8 13 C7.18964132 10.8435566 7.18964132 10.8435566 5.125 10.1875 C2.28930248 8.6028455 1.38358187 6.90552193 0 4 C0 2.68 0 1.36 0 0 Z " fill="#762F37" transform="translate(153,164)"/>
<path d="M0 0 C3.93846154 4.30769231 3.93846154 4.30769231 4.25 7.8125 C4.1675 8.534375 4.085 9.25625 4 10 C3.360625 10.103125 2.72125 10.20625 2.0625 10.3125 C1.0415625 10.6528125 1.0415625 10.6528125 0 11 C-0.33 11.99 -0.66 12.98 -1 14 C-1.33 12.68 -1.66 11.36 -2 10 C-2.66 10 -3.32 10 -4 10 C-2.99806563 6.20696275 -2.18975773 3.28463659 0 0 Z " fill="#FBFBF9" transform="translate(87,44)"/>
<path d="M0 0 C0.33 0 0.66 0 1 0 C1.33 2.97 1.66 5.94 2 9 C2.33 6.69 2.66 4.38 3 2 C3.33 2 3.66 2 4 2 C4 5.3 4 8.6 4 12 C3.01 12.33 2.02 12.66 1 13 C1.33 21.25 1.66 29.5 2 38 C1.34 38 0.68 38 0 38 C0 25.46 0 12.92 0 0 Z " fill="#62151F" transform="translate(144,147)"/>
<path d="M0 0 C0.33 2.31 0.66 4.62 1 7 C-2.63 7 -6.26 7 -10 7 C-9.1875 4.0625 -9.1875 4.0625 -8 1 C-5.07175348 0.02391783 -3.04386724 -0.08226668 0 0 Z " fill="#731D27" transform="translate(129,116)"/>
<path d="M0 0 C0 0.66 0 1.32 0 2 C-4.62 2.33 -9.24 2.66 -14 3 C-14 6.96 -14 10.92 -14 15 C-14.99 15 -15.98 15 -17 15 C-17.33 15.66 -17.66 16.32 -18 17 C-18 15.35 -18 13.7 -18 12 C-16 13 -16 13 -15 14 C-15 11.36 -15 8.72 -15 6 C-15.66 6 -16.32 6 -17 6 C-17.33 5.01 -17.66 4.02 -18 3 C-11.63785614 -0.50444331 -7.13909214 -1.55271035 0 0 Z " fill="#6D1D27" transform="translate(66,136)"/>
<path d="M0 0 C5.61 0 11.22 0 17 0 C17 0.66 17 1.32 17 2 C17.66 2.33 18.32 2.66 19 3 C19 4.98 19 6.96 19 9 C16.69 8.67 14.38 8.34 12 8 C12.66 7.01 13.32 6.02 14 5 C12.68 4.34 11.36 3.68 10 3 C10 2.34 10 1.68 10 1 C6.7 1 3.4 1 0 1 C0 0.67 0 0.34 0 0 Z " fill="#6C1B23" transform="translate(111,132)"/>
<path d="M0 0 C3.57397687 3.57397687 2.74458165 9.14096994 3 14 C3.05414063 14.81339844 3.10828125 15.62679687 3.1640625 16.46484375 C3.25 18.5625 3.25 18.5625 3 22 C2.01 22.99 1.02 23.98 0 25 C0 16.75 0 8.5 0 0 Z " fill="#722028" transform="translate(64,162)"/>
<path d="M0 0 C1.65 0 3.3 0 5 0 C6.06775224 1.96466413 7.06553465 3.96855359 8 6 C7.67 6.66 7.34 7.32 7 8 C6.34 8 5.68 8 5 8 C4.34 8.66 3.68 9.32 3 10 C0.9375 7.8125 0.9375 7.8125 -1 5 C-0.75 2.1875 -0.75 2.1875 0 0 Z " fill="#772630" transform="translate(160,150)"/>
<path d="M0 0 C0.99386719 0.00902344 1.98773438 0.01804687 3.01171875 0.02734375 C4.15060547 0.04474609 4.15060547 0.04474609 5.3125 0.0625 C5.3125 0.7225 5.3125 1.3825 5.3125 2.0625 C5.9725 2.3925 6.6325 2.7225 7.3125 3.0625 C6.44367188 3.00449219 5.57484375 2.94648437 4.6796875 2.88671875 C-2.81517638 2.29751785 -2.81517638 2.29751785 -9.3125 5.375 C-10.488125 6.7053125 -10.488125 6.7053125 -11.6875 8.0625 C-12.615625 8.9596875 -12.615625 8.9596875 -13.5625 9.875 C-13.93375 10.266875 -14.305 10.65875 -14.6875 11.0625 C-15.6875 8.0625 -15.6875 8.0625 -14.6875 5.0625 C-11.6875 3.0625 -11.6875 3.0625 -8.6875 3.0625 C-8.6875 2.4025 -8.6875 1.7425 -8.6875 1.0625 C-5.53819107 0.01273036 -3.29935544 -0.03881595 0 0 Z " fill="#69252D" transform="translate(64.6875,85.9375)"/>
<path d="M0 0 C1.67542976 0.28604898 3.34385343 0.61781233 5 1 C5.33 2.65 5.66 4.3 6 6 C5.360625 6.12375 4.72125 6.2475 4.0625 6.375 C3.0415625 6.684375 3.0415625 6.684375 2 7 C1.67 7.66 1.34 8.32 1 9 C0.01 8.34 -0.98 7.68 -2 7 C-1.125 1.125 -1.125 1.125 0 0 Z " fill="#FAFBFA" transform="translate(136,48)"/>
<path d="M0 0 C6.93 0.495 6.93 0.495 14 1 C13.67 1.66 13.34 2.32 13 3 C11.02 3 9.04 3 7 3 C7 3.66 7 4.32 7 5 C9.64 5.99 12.28 6.98 15 8 C15 8.33 15 8.66 15 9 C9.70122324 9.50464541 7.09283425 8.36521927 3 5 C2.01 3.35 1.02 1.7 0 0 Z " fill="#7C2A36" transform="translate(107,132)"/>
<path d="M0 0 C0.66 0 1.32 0 2 0 C3.4606285 2.64738916 4 3.89448334 4 7 C4.66 7 5.32 7 6 7 C6.33 7.99 6.66 8.98 7 10 C7.66 10.66 8.32 11.32 9 12 C5.44219804 11.39009109 2.3171411 10.4216319 -1 9 C-0.67 6.03 -0.34 3.06 0 0 Z " fill="#821F29" transform="translate(90,128)"/>
<path d="M0 0 C7.875 0.875 7.875 0.875 9 2 C9.14115161 4.67058851 9.04247107 7.32432238 9 10 C7.68 9.67 6.36 9.34 5 9 C4.9175 8.21625 4.835 7.4325 4.75 6.625 C4.27193661 3.85250896 4.27193661 3.85250896 1.9375 2.6875 C1.298125 2.460625 0.65875 2.23375 0 2 C0 1.34 0 0.68 0 0 Z " fill="#F8E7E9" transform="translate(118,104)"/>
<path d="M0 0 C1.65 0.33 3.3 0.66 5 1 C4.36747553 4.19137349 3.24396936 6.51237368 1.5 9.25 C1.0565625 9.95640625 0.613125 10.6628125 0.15625 11.390625 C-0.2253125 11.92171875 -0.606875 12.4528125 -1 13 C-1.33 13 -1.66 13 -2 13 C-2.26280222 8.66376337 -1.27044989 5.12896214 0 1 C0 0.67 0 0.34 0 0 Z " fill="#702A32" transform="translate(89,63)"/>
<path d="M0 0 C0.33 0 0.66 0 1 0 C1 3.3 1 6.6 1 10 C2.32 10 3.64 10 5 10 C5 9.01 5 8.02 5 7 C4.34 6.67 3.68 6.34 3 6 C4.375 4 4.375 4 6 2 C6.66 2 7.32 2 8 2 C8.33102914 5.6413205 8.42019439 7.41472925 6.25 10.4375 C5.5075 10.953125 4.765 11.46875 4 12 C2.68 11.67 1.36 11.34 0 11 C0 7.37 0 3.74 0 0 Z " fill="#5C1E29" transform="translate(88,97)"/>
<path d="M0 0 C0.33 0 0.66 0 1 0 C1 1.65 1 3.3 1 5 C1.66 5.33 2.32 5.66 3 6 C3.33 6.66 3.66 7.32 4 8 C7.04581269 8.46954261 7.04581269 8.46954261 10.5625 8.625 C11.76003906 8.69976562 12.95757812 8.77453125 14.19140625 8.8515625 C15.11824219 8.90054688 16.04507813 8.94953125 17 9 C17 9.33 17 9.66 17 10 C14.35409986 10.02684679 11.70846904 10.04676357 9.0625 10.0625 C7.93038086 10.07506836 7.93038086 10.07506836 6.77539062 10.08789062 C4.85005687 10.09652441 2.92464419 10.05224333 1 10 C0 9 0 9 -0.09765625 6.93359375 C-0.08605469 6.10988281 -0.07445313 5.28617187 -0.0625 4.4375 C-0.05347656 3.61121094 -0.04445313 2.78492187 -0.03515625 1.93359375 C-0.02355469 1.29550781 -0.01195313 0.65742187 0 0 Z M3 0 C3.99 0.495 3.99 0.495 5 1 C4.67 1.66 4.34 2.32 4 3 C4.66 3.33 5.32 3.66 6 4 C5.01 4.33 4.02 4.66 3 5 C3 3.35 3 1.7 3 0 Z " fill="#F1DFDF" transform="translate(109,122)"/>
<path d="M0 0 C1.98 0 3.96 0 6 0 C5.67 2.31 5.34 4.62 5 7 C2 8 2 8 -0.1875 7.0625 C-0.785625 6.711875 -1.38375 6.36125 -2 6 C-1.34 4.02 -0.68 2.04 0 0 Z " fill="#73232B" transform="translate(138,116)"/>
<path d="M0 0 C0 0.99 0 1.98 0 3 C0.99 3.66 1.98 4.32 3 5 C0.03 4.67 -2.94 4.34 -6 4 C-6 4.99 -6 5.98 -6 7 C-6.66 7 -7.32 7 -8 7 C-7.67 8.98 -7.34 10.96 -7 13 C-8.32 12.67 -9.64 12.34 -11 12 C-10.34 12 -9.68 12 -9 12 C-9.33 9.36 -9.66 6.72 -10 4 C-9.01 4 -8.02 4 -7 4 C-7 3.34 -7 2.68 -7 2 C-4.69 1.34 -2.38 0.68 0 0 Z " fill="#833841" transform="translate(137,119)"/>
<path d="M0 0 C-0.33 6.27 -0.66 12.54 -1 19 C-3.93447357 16.06552643 -3.46158423 12.81740544 -3.625 8.875 C-3.66367187 8.12089844 -3.70234375 7.36679688 -3.7421875 6.58984375 C-3.83651031 4.72696816 -3.91934662 2.86351745 -4 1 C-2 0 -2 0 0 0 Z " fill="#862230" transform="translate(63,103)"/>
<path d="M0 0 C-2.64738916 1.4606285 -3.89448334 2 -7 2 C-7 2.66 -7 3.32 -7 4 C-8.98 4 -10.96 4 -13 4 C-13.66 5.32 -14.32 6.64 -15 8 C-15.66 8 -16.32 8 -17 8 C-13.74752209 -0.27903468 -7.90448283 -0.55254637 0 0 Z " fill="#F6E7E5" transform="translate(69,88)"/>
<path d="M0 0 C0.33 0.99 0.66 1.98 1 3 C-1.61673759 4.40182371 -4.0371669 5.60495559 -7 6 C-7.66 5.34 -8.32 4.68 -9 4 C-6.73455663 -1.01633889 -5.27613404 -1.24961069 0 0 Z " fill="#7A323A" transform="translate(132,41)"/>
<path d="M0 0 C1.74271938 2.297221 3.39911152 4.59866729 5 7 C5.99 7.66 6.98 8.32 8 9 C7.34 9.66 6.68 10.32 6 11 C4.125 10.9375 4.125 10.9375 2 10 C-0.25 7.4375 -0.25 7.4375 -2 5 C-1.34 3.35 -0.68 1.7 0 0 Z " fill="#782F37" transform="translate(50,126)"/>
<path d="M0 0 C0.33 0 0.66 0 1 0 C0.88590407 1.45922693 0.75834456 2.91740598 0.625 4.375 C0.55539063 5.18710938 0.48578125 5.99921875 0.4140625 6.8359375 C0 9 0 9 -2 11 C-2.33 10.67 -2.66 10.34 -3 10 C-4.68183948 9.76712992 -6.3712416 9.58735834 -8.0625 9.4375 C-8.98160156 9.35371094 -9.90070313 9.26992187 -10.84765625 9.18359375 C-11.55792969 9.12300781 -12.26820312 9.06242187 -13 9 C-13 8.67 -13 8.34 -13 8 C-11.1128125 7.5978125 -11.1128125 7.5978125 -9.1875 7.1875 C-5.92849028 6.38855405 -4.16819928 5.65002135 -2 3 C-1.34 3 -0.68 3 0 3 C0 2.01 0 1.02 0 0 Z " fill="#6B1F28" transform="translate(133,96)"/>
<path d="M0 0 C-0.99 0.33 -1.98 0.66 -3 1 C-3 2.65 -3 4.3 -3 6 C-4.98 6 -6.96 6 -9 6 C-9 5.34 -9 4.68 -9 4 C-9.66 3.67 -10.32 3.34 -11 3 C-11 2.34 -11 1.68 -11 1 C-9.5437328 0.63743142 -8.08488815 0.28520207 -6.625 -0.0625 C-5.40683594 -0.35833984 -5.40683594 -0.35833984 -4.1640625 -0.66015625 C-2 -1 -2 -1 0 0 Z " fill="#7A1E23" transform="translate(147,81)"/>
<path d="M0 0 C6.52307692 1.47692308 6.52307692 1.47692308 8.9375 4.125 C9.288125 4.74375 9.63875 5.3625 10 6 C9.34 6 8.68 6 8 6 C7.67 6.66 7.34 7.32 7 8 C7 7.34 7 6.68 7 6 C6.34 6 5.68 6 5 6 C5 6.66 5 7.32 5 8 C4.34 7.67 3.68 7.34 3 7 C3.33 6.34 3.66 5.68 4 5 C3.34 5 2.68 5 2 5 C1.67 4.34 1.34 3.68 1 3 C0.01 2.67 -0.98 2.34 -2 2 C-1.34 1.34 -0.68 0.68 0 0 Z M8 2 C10 3 10 3 10 3 Z " fill="#7E2E34" transform="translate(148,132)"/>
<path d="M0 0 C1.2065625 0.0309375 1.2065625 0.0309375 2.4375 0.0625 C1.7775 2.7025 1.1175 5.3425 0.4375 8.0625 C1.7575 8.3925 3.0775 8.7225 4.4375 9.0625 C-2.4375 8.1875 -2.4375 8.1875 -3.5625 7.0625 C-3.6875 4.0625 -3.6875 4.0625 -3.5625 1.0625 C-2.5625 0.0625 -2.5625 0.0625 0 0 Z " fill="#FAE8EB" transform="translate(153.5625,87.9375)"/>
<path d="M0 0 C0.66 0 1.32 0 2 0 C2.185625 1.11375 2.185625 1.11375 2.375 2.25 C2.85432552 4.96327957 2.85432552 4.96327957 4.125 7 C5.28427778 9.64977777 4.75850744 11.26937322 4 14 C3.34 14 2.68 14 2 14 C-0.29612756 4.58997722 -0.29612756 4.58997722 0 0 Z " fill="#6F2428" transform="translate(152,107)"/>
<path d="M0 0 C0.66 0.33 1.32 0.66 2 1 C0.5682479 6.01113235 -1.98445693 7.94469549 -6 11 C-6.33 10.34 -6.66 9.68 -7 9 C-5.6875 6.375 -5.6875 6.375 -4 4 C-3.34 4 -2.68 4 -2 4 C-2 3.34 -2 2.68 -2 2 C-1.34 2 -0.68 2 0 2 C0 1.34 0 0.68 0 0 Z " fill="#FCECED" transform="translate(97,181)"/>
<path d="M0 0 C0.66 0.99 1.32 1.98 2 3 C-1.37817425 3.84454356 -3.67465243 4.10844919 -7 3 C-7 4.65 -7 6.3 -7 8 C-9 5 -9 5 -9 2 C-5.89782379 0.16167336 -3.60591321 -0.47446226 0 0 Z " fill="#EFDADA" transform="translate(154,177)"/>
<path d="M0 0 C3.63 0 7.26 0 11 0 C11 0.99 11 1.98 11 3 C7.37 3 3.74 3 0 3 C0 2.01 0 1.02 0 0 Z " fill="#703A44" transform="translate(52,149)"/>
<path d="M0 0 C0.66 0.33 1.32 0.66 2 1 C2 2.98 2 4.96 2 7 C-2.86051596 9.59227518 -7.65271133 9.18689553 -13 9 C-13 8.67 -13 8.34 -13 8 C-11.35 8 -9.7 8 -8 8 C-8 7.34 -8 6.68 -8 6 C-5.69 6 -3.38 6 -1 6 C-0.67 4.02 -0.34 2.04 0 0 Z " fill="#F6E1DE" transform="translate(128,141)"/>
<path d="M0 0 C0.33 0 0.66 0 1 0 C1.05410687 1.77049689 1.09284119 3.54146849 1.125 5.3125 C1.14820312 6.29863281 1.17140625 7.28476563 1.1953125 8.30078125 C1 11 1 11 -1 14 C-4.625 14.1875 -4.625 14.1875 -8 14 C-8 13.67 -8 13.34 -8 13 C-6.02 13 -4.04 13 -2 13 C-1.93941406 12.31292969 -1.87882812 11.62585938 -1.81640625 10.91796875 C-1.73261719 10.01691406 -1.64882812 9.11585938 -1.5625 8.1875 C-1.48128906 7.29417969 -1.40007812 6.40085937 -1.31640625 5.48046875 C-1 3 -1 3 0 0 Z " fill="#E4CCCC" transform="translate(87,120)"/>
<path d="M0 0 C1.65 0 3.3 0 5 0 C4.67 2.97 4.34 5.94 4 9 C3.34 8.67 2.68 8.34 2 8 C1.375 5.9375 1.375 5.9375 1 4 C0.67 4.66 0.34 5.32 0 6 C-0.66 6 -1.32 6 -2 6 C-1.49396008 3.83125748 -1.00016187 2.00032373 0 0 Z " fill="#721C23" transform="translate(128,44)"/>
<path d="M0 0 C2.89573124 0.99852802 3.97265909 1.96094156 5.75 4.5 C7.38991031 9.09174888 7.25734187 13.17722273 7 18 C6.67 18 6.34 18 6 18 C6 15.03 6 12.06 6 9 C5.34 9 4.68 9 4 9 C4 8.01 4 7.02 4 6 C3.34 6 2.68 6 2 6 C0 3 0 3 0 0 Z " fill="#EED6D8" transform="translate(104,34)"/>
<path d="M0 0 C1.32 0.66 2.64 1.32 4 2 C4 2.66 4 3.32 4 4 C4.66 4 5.32 4 6 4 C6 4.66 6 5.32 6 6 C6.66 6.33 7.32 6.66 8 7 C8 7.99 8 8.98 8 10 C3.44984107 8.48328036 1.49942736 4.83108947 -1 1 C-0.67 0.67 -0.34 0.34 0 0 Z " fill="#F6E4E4" transform="translate(100,136)"/>
<path d="M0 0 C2.475 0.495 2.475 0.495 5 1 C5 1.99 5 2.98 5 4 C5.33 4.99 5.66 5.98 6 7 C7 10 7 10 7 13 C6.34 13 5.68 13 5 13 C4.731875 11.906875 4.46375 10.81375 4.1875 9.6875 C3.06861896 6.21307994 2.53602446 5.30547678 0 3 C0 2.01 0 1.02 0 0 Z " fill="#6D2127" transform="translate(169,138)"/>
<path d="M0 0 C0.66 0.99 1.32 1.98 2 3 C1.67 3.66 1.34 4.32 1 5 C1.66 5.33 2.32 5.66 3 6 C2.01 6 1.02 6 0 6 C0 6.99 0 7.98 0 9 C-1.32 8.67 -2.64 8.34 -4 8 C-4 4 -4 4 -2 1.75 C-1.01 0.88375 -1.01 0.88375 0 0 Z " fill="#7C1F25" transform="translate(111,58)"/>
<path d="M0 0 C0.33 0 0.66 0 1 0 C1.34615998 5.65394631 0.43425238 9.03006806 -2 14 C-2.66 13.34 -3.32 12.68 -4 12 C-4 8.78452708 -3.46459666 7.76646037 -2 5 C-1.32033324 3.33859237 -0.65061095 1.67299959 0 0 Z " fill="#F8EAE9" transform="translate(109,49)"/>
<path d="M0 0 C1.485 0.99 1.485 0.99 3 2 C3.29296875 5.0390625 3.29296875 5.0390625 3.1875 8.625 C3.16042969 9.81351563 3.13335937 11.00203125 3.10546875 12.2265625 C3.07066406 13.14179688 3.03585938 14.05703125 3 15 C2.34 15 1.68 15 1 15 C0.15318867 9.91913204 -0.09038099 5.15171623 0 0 Z " fill="#882B3D" transform="translate(102,162)"/>
<path d="M0 0 C1.98 0 3.96 0 6 0 C5.38125 0.28875 4.7625 0.5775 4.125 0.875 C1.86674235 1.93720042 1.86674235 1.93720042 0 4 C-0.61287697 6.31956908 -1.0144199 8.64296818 -1.4375 11.00390625 C-1.623125 11.66261719 -1.80875 12.32132813 -2 13 C-2.99 13.495 -2.99 13.495 -4 14 C-3.53328373 8.58609132 -2.75702189 4.79482068 0 0 Z " fill="#EFD1D5" transform="translate(138,87)"/>
<path d="M0 0 C0.66 0.33 1.32 0.66 2 1 C1.01 2.98 0.02 4.96 -1 7 C1.97 7 4.94 7 8 7 C8 7.33 8 7.66 8 8 C6.39667209 8.08121924 4.79215974 8.13929134 3.1875 8.1875 C2.29417969 8.22230469 1.40085937 8.25710937 0.48046875 8.29296875 C-2.41647515 7.95081002 -3.22555028 7.24606427 -5 5 C-4.67 4.34 -4.34 3.68 -4 3 C-3.67 3.33 -3.34 3.66 -3 4 C-2.67 3.01 -2.34 2.02 -2 1 C-1.34 0.67 -0.68 0.34 0 0 Z " fill="#76363A" transform="translate(120,72)"/>
<path d="M0 0 C2 1.1875 2 1.1875 4 3 C4.375 5.5625 4.375 5.5625 4 8 C3.34 8.66 2.68 9.32 2 10 C0.68 10 -0.64 10 -2 10 C-1 7 -1 7 1 5 C0.67958603 2.39719432 0.67958603 2.39719432 0 0 Z " fill="#682B30" transform="translate(160,172)"/>
<path d="M0 0 C3.82946843 1.45255699 5.12050295 3.42895561 7 7 C5.02 7.99 5.02 7.99 3 9 C1.35173889 6.03312999 0.55728913 3.34373475 0 0 Z " fill="#F3E2E3" transform="translate(163,160)"/>
<path d="M0 0 C3.63 0.66 7.26 1.32 11 2 C11 2.99 11 3.98 11 5 C12.94009522 6.70532323 12.94009522 6.70532323 15 8 C13.68 8.33 12.36 8.66 11 9 C10.484375 8.21625 9.96875 7.4325 9.4375 6.625 C6.4837677 3.44405752 4.18393452 2.88506307 0 2 C0 1.34 0 0.68 0 0 Z " fill="#5E2D33" transform="translate(109,148)"/>
<path d="M0 0 C2.4375 0.8125 2.4375 0.8125 5 2 C5.33 2.99 5.66 3.98 6 5 C5.071875 4.773125 4.14375 4.54625 3.1875 4.3125 C0.03173152 3.63680017 0.03173152 3.63680017 -1.875 5.4375 C-2.24625 5.953125 -2.6175 6.46875 -3 7 C-3.33 6.01 -3.66 5.02 -4 4 C-2.68 2.68 -1.36 1.36 0 0 Z " fill="#73353E" transform="translate(84,149)"/>
<path d="M0 0 C0.66 0.33 1.32 0.66 2 1 C1.67 3.64 1.34 6.28 1 9 C3.97 9 6.94 9 10 9 C10 9.33 10 9.66 10 10 C8.37675914 10.22162329 6.751279 10.42689803 5.125 10.625 C4.22007813 10.74101563 3.31515625 10.85703125 2.3828125 10.9765625 C1.59648438 10.98429687 0.81015625 10.99203125 0 11 C-0.66 10.34 -1.32 9.68 -2 9 C-2 8.34 -2 7.68 -2 7 C-1.34 7 -0.68 7 0 7 C-0.2784375 5.824375 -0.2784375 5.824375 -0.5625 4.625 C-1 2 -1 2 0 0 Z " fill="#F9E5E9" transform="translate(117,114)"/>
<path d="M0 0 C0.66 0 1.32 0 2 0 C2.6875 1.8125 2.6875 1.8125 3 4 C1.6875 5.75 1.6875 5.75 0 7 C-0.66 7 -1.32 7 -2 7 C-2 7.66 -2 8.32 -2 9 C-2.66 9 -3.32 9 -4 9 C-3.35494404 5.51669784 -2.01782732 2.90567134 0 0 Z " fill="#F8E6E4" transform="translate(123,70)"/>
<path d="M0 0 C0.33 0.99 0.66 1.98 1 3 C1.99 3 2.98 3 4 3 C3.25 9.625 3.25 9.625 1 13 C-0.10228696 8.59085217 -0.07654536 4.51617599 0 0 Z " fill="#F2DADD" transform="translate(114,44)"/>
<path d="M0 0 C1.94268841 2.91403262 3.46395304 5.85808576 5 9 C4.34 9.66 3.68 10.32 3 11 C0.50875735 8.83370204 -0.59924482 7.30623023 -1 4 C-0.5625 1.75 -0.5625 1.75 0 0 Z " fill="#733239" transform="translate(148,155)"/>
<path d="M0 0 C0.66 0 1.32 0 2 0 C0.34832443 3.5786304 -1.78286492 6.74820188 -4 10 C-4.66 9.67 -5.32 9.34 -6 9 C-5.25 4.25 -5.25 4.25 -3 2 C-2.01 2 -1.02 2 0 2 C0 1.34 0 0.68 0 0 Z " fill="#6D272B" transform="translate(153,138)"/>
<path d="M0 0 C1.1577506 3.47325181 1.06866652 6.36067448 1 10 C0.01 9.67 -0.98 9.34 -2 9 C-3.6875 5.4375 -3.6875 5.4375 -5 2 C-3.35 2 -1.7 2 0 2 C0 1.34 0 0.68 0 0 Z " fill="#752A33" transform="translate(107,89)"/>
<path d="M0 0 C0.33 1.32 0.66 2.64 1 4 C0.01 3.67 -0.98 3.34 -2 3 C-2 4.32 -2 5.64 -2 7 C-3.65 7 -5.3 7 -7 7 C-6.67 5.35 -6.34 3.7 -6 2 C-4.02 1.34 -2.04 0.68 0 0 Z " fill="#7F212A" transform="translate(100,43)"/>
<path d="M0 0 C2.31 0 4.62 0 7 0 C6.01 0.495 6.01 0.495 5 1 C4.34786708 3.02463255 4.34786708 3.02463255 4 5 C2.68 5.33 1.36 5.66 0 6 C0 4 0 2 0 0 Z " fill="#F9F6F8" transform="translate(56,139)"/>
<path d="M0 0 C0.99 0.33 1.98 0.66 3 1 C2.67 2.98 2.34 4.96 2 7 C0.68 7 -0.64 7 -2 7 C-1.125 1.125 -1.125 1.125 0 0 Z " fill="#F4FCFB" transform="translate(152,123)"/>
<path d="M0 0 C0.33 0 0.66 0 1 0 C1 3.3 1 6.6 1 10 C0.01 10 -0.98 10 -2 10 C-2 7.36 -2 4.72 -2 2 C-1.34 2 -0.68 2 0 2 C0 1.34 0 0.68 0 0 Z " fill="#B59FA6" transform="translate(142,98)"/>
<path d="M0 0 C0.99 0 1.98 0 3 0 C4.34919532 1.65385233 5.68133728 3.321702 7 5 C9.11660427 6.31165257 9.11660427 6.31165257 11 7 C10.67 7.66 10.34 8.32 10 9 C4.93126149 6.92642516 2.73152399 4.72763768 0 0 Z " fill="#6E2732" transform="translate(144,185)"/>
<path d="M0 0 C0.66 0 1.32 0 2 0 C3.125 5.75 3.125 5.75 2 8 C0 7 0 7 -2 5 C-1.46428571 1.46428571 -1.46428571 1.46428571 0 0 Z " fill="#891F2E" transform="translate(84,152)"/>
<path d="M0 0 C0.66 0.99 1.32 1.98 2 3 C1.125 5.6875 1.125 5.6875 0 8 C-2.64 7.67 -5.28 7.34 -8 7 C-5.08235 5.0549 -3.37462715 4.54723683 0 4 C0 2.68 0 1.36 0 0 Z " fill="#7B373C" transform="translate(130,144)"/>
<path d="M0 0 C1.32 0.33 2.64 0.66 4 1 C4 1.99 4 2.98 4 4 C4.66 4.33 5.32 4.66 6 5 C3.36 5.33 0.72 5.66 -2 6 C-2 5.01 -2 4.02 -2 3 C-1.34 2.67 -0.68 2.34 0 2 C0 1.34 0 0.68 0 0 Z " fill="#6C2027" transform="translate(158,133)"/>
<path d="M0 0 C3 1 3 1 4 3 C4.66 3 5.32 3 6 3 C5.6875 4.9375 5.6875 4.9375 5 7 C4.01 7.33 3.02 7.66 2 8 C1.01 7.01 0.02 6.02 -1 5 C-0.34 4.34 0.32 3.68 1 3 C0.67 2.01 0.34 1.02 0 0 Z " fill="#EEEBE8" transform="translate(68,126)"/>
<path d="M0 0 C0.66 0 1.32 0 2 0 C2.33 0.99 2.66 1.98 3 3 C1.68 4.32 0.36 5.64 -1 7 C-1.99 6.34 -2.98 5.68 -4 5 C-2.71937515 3.2925002 -1.38232443 1.62626404 0 0 Z " fill="#F0FDFB" transform="translate(95,176)"/>
<path d="M0 0 C0.33 0 0.66 0 1 0 C1 3.63 1 7.26 1 11 C-0.70884005 9.37660195 -2.37446717 7.70680947 -4 6 C-4 5.34 -4 4.68 -4 4 C-3.01 4 -2.02 4 -1 4 C-0.67 2.68 -0.34 1.36 0 0 Z " fill="#5A262B" transform="translate(132,161)"/>
<path d="M0 0 C1.65 1.65 3.3 3.3 5 5 C3.02 5.66 1.04 6.32 -1 7 C-1 3 -1 3 0 0 Z " fill="#F3E9E9" transform="translate(115,151)"/>
<path d="M0 0 C0.99 1.32 1.98 2.64 3 4 C2.34 4 1.68 4 1 4 C1 6.64 1 9.28 1 12 C0.34 11.67 -0.32 11.34 -1 11 C-1.0270043 9.54176788 -1.04639787 8.08339325 -1.0625 6.625 C-1.07410156 5.81289062 -1.08570313 5.00078125 -1.09765625 4.1640625 C-1 2 -1 2 0 0 Z " fill="#832431" transform="translate(146,145)"/>
<path d="M0 0 C0.33 0 0.66 0 1 0 C1.042721 1.66611905 1.04063832 3.33382885 1 5 C0 6 0 6 -1.84765625 6.09765625 C-3.8984375 6.06510417 -5.94921875 6.03255208 -8 6 C-7.67 4.68 -7.34 3.36 -7 2 C-6.67 2.66 -6.34 3.32 -6 4 C-4.02 3.67 -2.04 3.34 0 3 C0 2.01 0 1.02 0 0 Z " fill="#FBE7E6" transform="translate(167,128)"/>
<path d="M0 0 C2.875 0.25 2.875 0.25 6 1 C7.375 3.0625 7.375 3.0625 8 5 C6.68 5.33 5.36 5.66 4 6 C2.68 4.02 1.36 2.04 0 0 Z " fill="#F4E5E6" transform="translate(51,128)"/>
<path d="M0 0 C0.99 0.33 1.98 0.66 3 1 C0.525 4.465 0.525 4.465 -2 8 C-2.66 7.01 -3.32 6.02 -4 5 C-3 2 -3 2 0 0 Z " fill="#732D33" transform="translate(53,89)"/>
<path d="M0 0 C0.99 0.33 1.98 0.66 3 1 C3 3.64 3 6.28 3 9 C2.01 9 1.02 9 0 9 C-0.66 6.36 -1.32 3.72 -2 1 C-1.34 0.67 -0.68 0.34 0 0 Z " fill="#67333D" transform="translate(148,87)"/>
<path d="M0 0 C0 0.66 0 1.32 0 2 C-0.66 2 -1.32 2 -2 2 C-2 3.32 -2 4.64 -2 6 C-2.66 6 -3.32 6 -4 6 C-4 5.34 -4 4.68 -4 4 C-5.65 4.33 -7.3 4.66 -9 5 C-8.67 4.01 -8.34 3.02 -8 2 C-5.27366306 0.89786379 -2.95855967 0 0 0 Z " fill="#7B2C34" transform="translate(145,190)"/>
<path d="M0 0 C1.98 0.99 1.98 0.99 4 2 C3.67 2.99 3.34 3.98 3 5 C3.66 5 4.32 5 5 5 C4.6875 6.875 4.6875 6.875 4 9 C3.01 9.66 2.02 10.32 1 11 C1.01160156 10.37351563 1.02320313 9.74703125 1.03515625 9.1015625 C1.04417969 8.28429687 1.05320313 7.46703125 1.0625 6.625 C1.07990234 5.40683594 1.07990234 5.40683594 1.09765625 4.1640625 C1.14466334 1.95062858 1.14466334 1.95062858 0 0 Z " fill="#FAEBEB" transform="translate(162,173)"/>
<path d="M0 0 C1.90608098 3.21182149 2.22266247 5.53882603 2.125 9.25 C2.10695312 10.14203125 2.08890625 11.0340625 2.0703125 11.953125 C2.04710937 12.62859375 2.02390625 13.3040625 2 14 C-0.35348271 11.64651729 -0.36468749 10.78533309 -0.6875 7.5625 C-0.77386719 6.78003906 -0.86023438 5.99757812 -0.94921875 5.19140625 C-1 3 -1 3 0 0 Z " fill="#ECD5D5" transform="translate(149,146)"/>
<path d="M0 0 C5.75 1.625 5.75 1.625 8 5 C4.44219804 4.39009109 1.3171411 3.4216319 -2 2 C-1.34 1.34 -0.68 0.68 0 0 Z " fill="#6E1F25" transform="translate(97,140)"/>
<path d="M0 0 C2.0625 0.4375 2.0625 0.4375 4 1 C3.67 2.65 3.34 4.3 3 6 C2.01 6 1.02 6 0 6 C-0.38218767 4.34385343 -0.71395102 2.67542976 -1 1 C-0.67 0.67 -0.34 0.34 0 0 Z " fill="#841D2C" transform="translate(70,136)"/>
<path d="M0 0 C1.42944945 2.35438733 2.08661261 3.48032433 1.625 6.25 C1.41875 6.8275 1.2125 7.405 1 8 C-0.65 7.67 -2.3 7.34 -4 7 C-4 6.34 -4 5.68 -4 5 C-3.01 5 -2.02 5 -1 5 C-0.67 3.35 -0.34 1.7 0 0 Z " fill="#EED7DD" transform="translate(155,125)"/>
<path d="M0 0 C1.32 0.66 2.64 1.32 4 2 C4 3.32 4 4.64 4 6 C3.01 5.67 2.02 5.34 1 5 C0.01 5 -0.98 5 -2 5 C-2.33 4.34 -2.66 3.68 -3 3 C-2.01 2.01 -1.02 1.02 0 0 Z " fill="#73323A" transform="translate(63,97)"/>
<path d="M0 0 C4.875 1.875 4.875 1.875 6 3 C6.04063832 4.66617115 6.042721 6.33388095 6 8 C5.01 7.67 4.02 7.34 3 7 C2.67 5.35 2.34 3.7 2 2 C1.34 2 0.68 2 0 2 C0 1.34 0 0.68 0 0 Z " fill="#7D2C39" transform="translate(119,174)"/>
<path d="M0 0 C2.97 0.495 2.97 0.495 6 1 C6.33 2.32 6.66 3.64 7 5 C6.01 5.495 6.01 5.495 5 6 C4.566875 5.505 4.13375 5.01 3.6875 4.5 C2.00259517 2.66781808 2.00259517 2.66781808 -1 3 C-0.67 2.01 -0.34 1.02 0 0 Z " fill="#F6EDEC" transform="translate(84,147)"/>
<path d="M0 0 C0.99 0 1.98 0 3 0 C2.88637738 1.4800841 2.75877092 2.95910074 2.625 4.4375 C2.52058594 5.67306641 2.52058594 5.67306641 2.4140625 6.93359375 C2.27742188 7.61550781 2.14078125 8.29742187 2 9 C1.01 9.495 1.01 9.495 0 10 C-1.25733598 6.22799206 -1.03366148 3.74702285 0 0 Z " fill="#FAE9EA" transform="translate(121,43)"/>
<path d="M0 0 C0.66 0.33 1.32 0.66 2 1 C1 4 1 4 -1.4375 5.75 C-2.7059375 6.36875 -2.7059375 6.36875 -4 7 C-4.66 6.67 -5.32 6.34 -6 6 C-2.25 1.125 -2.25 1.125 0 0 Z " fill="#F4E4E3" transform="translate(122,33)"/>
<path d="M0 0 C-0.99 0 -1.98 0 -3 0 C-3 0.99 -3 1.98 -3 3 C-5.31 3.33 -7.62 3.66 -10 4 C-4.75 -1.425 -4.75 -1.425 0 0 Z " fill="#F0DBDD" transform="translate(96,33)"/>
<path d="M0 0 C6.625 -0.25 6.625 -0.25 10 2 C9.67 2.99 9.34 3.98 9 5 C8.1646875 4.566875 8.1646875 4.566875 7.3125 4.125 C4.91505355 2.9586747 2.48403061 1.9660119 0 1 C0 0.67 0 0.34 0 0 Z " fill="#753238" transform="translate(132,32)"/>
<path d="M0 0 C2.88437779 1.29299694 4.87219421 2.65941363 7 5 C4.125 5.1875 4.125 5.1875 1 5 C0.34 4.01 -0.32 3.02 -1 2 C-0.67 1.34 -0.34 0.68 0 0 Z " fill="#7B2B32" transform="translate(105,190)"/>
<path d="M0 0 C0.66 0 1.32 0 2 0 C2.28571429 8.57142857 2.28571429 8.57142857 0 12 C-0.76173392 7.6835078 -1.16063604 4.25566547 0 0 Z " fill="#7E1D30" transform="translate(103,156)"/>
<path d="M0 0 C0.66 0 1.32 0 2 0 C2 0.66 2 1.32 2 2 C3.65 2 5.3 2 7 2 C6.67 2.66 6.34 3.32 6 4 C1.52459016 5.26229508 1.52459016 5.26229508 -1 4 C-0.67 2.68 -0.34 1.36 0 0 Z " fill="#F0EFEB" transform="translate(110,144)"/>
<path d="M0 0 C1.46067199 0.45082469 2.91848032 0.91093537 4.375 1.375 C5.18710938 1.63023437 5.99921875 1.88546875 6.8359375 2.1484375 C9 3 9 3 11 5 C6.37390802 5.3227506 3.71973879 4.84450614 0 2 C0 1.34 0 0.68 0 0 Z " fill="#67272E" transform="translate(111,136)"/>
<path d="M0 0 C2 3 2 3 2 7 C2.66 7.33 3.32 7.66 4 8 C3.01 8.33 2.02 8.66 1 9 C0.34 8.67 -0.32 8.34 -1 8 C-0.67 5.36 -0.34 2.72 0 0 Z " fill="#883642" transform="translate(75,126)"/>
<path d="M0 0 C1.32 0.33 2.64 0.66 4 1 C3.01 1.33 2.02 1.66 1 2 C0.87625 2.804375 0.7525 3.60875 0.625 4.4375 C0.41875 5.283125 0.2125 6.12875 0 7 C-0.99 7.495 -0.99 7.495 -2 8 C-2 6.02 -2 4.04 -2 2 C-1.34 2 -0.68 2 0 2 C0 1.34 0 0.68 0 0 Z " fill="#6D2834" transform="translate(120,115)"/>
<path d="M0 0 C1.65 0.33 3.3 0.66 5 1 C5 1.99 5 2.98 5 4 C3.02 4 1.04 4 -1 4 C-0.67 2.68 -0.34 1.36 0 0 Z " fill="#783240" transform="translate(95,40)"/>
<path d="M0 0 C1.48828125 1.14453125 1.48828125 1.14453125 3 3 C3.29296875 5.69921875 3.29296875 5.69921875 3.1875 8.6875 C3.16042969 9.68136719 3.13335937 10.67523438 3.10546875 11.69921875 C3.07066406 12.45847656 3.03585938 13.21773437 3 14 C2.67 14 2.34 14 2 14 C1.86722656 13.31292969 1.73445312 12.62585937 1.59765625 11.91796875 C1.42105469 11.01691406 1.24445313 10.11585937 1.0625 9.1875 C0.88847656 8.29417969 0.71445313 7.40085937 0.53515625 6.48046875 C0.02258847 3.88602829 0.02258847 3.88602829 -1 1 C-0.67 0.67 -0.34 0.34 0 0 Z " fill="#68222D" transform="translate(141,36)"/>
<path d="M0 0 C0.33 0.66 0.66 1.32 1 2 C-0.45635371 2.22174933 -1.91522956 2.42698698 -3.375 2.625 C-4.18710937 2.74101562 -4.99921875 2.85703125 -5.8359375 2.9765625 C-6.55007812 2.98429688 -7.26421875 2.99203125 -8 3 C-8.66 2.34 -9.32 1.68 -10 1 C-6.78548731 -0.60725635 -3.56387464 -0.05748185 0 0 Z " fill="#F2D6DB" transform="translate(68,133)"/>
<path d="M0 0 C0.99 0.33 1.98 0.66 3 1 C0.525 4.465 0.525 4.465 -2 8 C-2.33 6.68 -2.66 5.36 -3 4 C-1.5625 1.75 -1.5625 1.75 0 0 Z " fill="#FCEAF0" transform="translate(102,108)"/>
<path d="M0 0 C0.66 0 1.32 0 2 0 C2 1.98 2 3.96 2 6 C1.01 6 0.02 6 -1 6 C-1.66 5.34 -2.32 4.68 -3 4 C-1.625 2 -1.625 2 0 0 Z " fill="#6F1A21" transform="translate(94,99)"/>
<path d="M0 0 C4.87362847 0.45336079 7.39042389 1.7089159 11 5 C10.67 5.66 10.34 6.32 10 7 C7 6 7 6 5 3 C2.44816596 1.79549696 2.44816596 1.79549696 0 1 C0 0.67 0 0.34 0 0 Z " fill="#EED8D6" transform="translate(93,88)"/>
<path d="M0 0 C0.33 0.99 0.66 1.98 1 3 C1.66 3.66 2.32 4.32 3 5 C0 7 0 7 -3 7 C-2.38722388 4.03824877 -1.74627478 2.61941217 0 0 Z " fill="#F3DCDB" transform="translate(90,72)"/>
<path d="M0 0 C0.66 0.66 1.32 1.32 2 2 C1.625 4.125 1.625 4.125 1 6 C-0.32 6.33 -1.64 6.66 -3 7 C-1.125 1.125 -1.125 1.125 0 0 Z " fill="#6D202B" transform="translate(138,64)"/>
<path d="M0 0 C0.66 0 1.32 0 2 0 C2.66 0.99 3.32 1.98 4 3 C6.05003955 4.19232613 6.05003955 4.19232613 8 5 C5.6875 5.6875 5.6875 5.6875 3 6 C1.1875 4.75 1.1875 4.75 0 3 C0 2.01 0 1.02 0 0 Z " fill="#F9E6EA" transform="translate(90,51)"/>
<path d="M0 0 C0.93065133 2.60582371 1.14917407 3.64198224 0.0625 6.25 C-0.4634375 7.11625 -0.4634375 7.11625 -1 8 C-3 5 -3 5 -3 1 C-2.01 0.67 -1.02 0.34 0 0 Z " fill="#8B3E4A" transform="translate(101,45)"/>
<path d="M0 0 C1.5 1.375 1.5 1.375 3 3 C3 3.66 3 4.32 3 5 C3.99 5.33 4.98 5.66 6 6 C5.67 6.66 5.34 7.32 5 8 C4.34 8 3.68 8 3 8 C3 7.34 3 6.68 3 6 C2.34 6 1.68 6 1 6 C0.67 4.02 0.34 2.04 0 0 Z " fill="#773940" transform="translate(70,185)"/>
<path d="M0 0 C1.5625 1.6875 1.5625 1.6875 3 4 C2.6875 6.75 2.6875 6.75 2 9 C1.67 8.34 1.34 7.68 1 7 C0.34 6.67 -0.32 6.34 -1 6 C-0.67 4.02 -0.34 2.04 0 0 Z " fill="#7D3339" transform="translate(67,145)"/>
<path d="M0 0 C1.32 0 2.64 0 4 0 C4.33 1.32 4.66 2.64 5 4 C3.35 4.33 1.7 4.66 0 5 C-0.33 4.01 -0.66 3.02 -1 2 C-0.67 1.34 -0.34 0.68 0 0 Z " fill="#F1ECE9" transform="translate(100,124)"/>
<path d="M0 0 C1.98 0 3.96 0 6 0 C6.33 0.66 6.66 1.32 7 2 C5.02 2.33 3.04 2.66 1 3 C0.67 3.99 0.34 4.98 0 6 C0 4.02 0 2.04 0 0 Z " fill="#712934" transform="translate(89,97)"/>
<path d="M0 0 C1.32 0 2.64 0 4 0 C4 1.65 4 3.3 4 5 C2.02 5 0.04 5 -2 5 C-1 3 -1 3 2 2 C1.34 1.34 0.68 0.68 0 0 Z " fill="#6B1F24" transform="translate(140,82)"/>
<path d="M0 0 C1.32 0.33 2.64 0.66 4 1 C2.02 3.97 2.02 3.97 0 7 C-0.66 6.67 -1.32 6.34 -2 6 C-1.34 4.02 -0.68 2.04 0 0 Z " fill="#7F2E37" transform="translate(134,70)"/>
<path d="M0 0 C3.34373475 0.55728913 6.03312999 1.35173889 9 3 C6.36 3 3.72 3 1 3 C0.67 2.01 0.34 1.02 0 0 Z " fill="#F7EFED" transform="translate(153,180)"/>
<path d="M0 0 C0.66 0 1.32 0 2 0 C2.66 2.64 3.32 5.28 4 8 C3.01 7.67 2.02 7.34 1 7 C0.67 4.69 0.34 2.38 0 0 Z " fill="#723538" transform="translate(66,176)"/>
<path d="M0 0 C3 1.5 3 1.5 6 3 C5.67 3.66 5.34 4.32 5 5 C3.35 4.67 1.7 4.34 0 4 C0 2.68 0 1.36 0 0 Z " fill="#812532" transform="translate(120,150)"/>
<path d="M0 0 C0.66 0 1.32 0 2 0 C2 1.32 2 2.64 2 4 C3.98 4 5.96 4 8 4 C8 4.33 8 4.66 8 5 C5.03 5 2.06 5 -1 5 C-0.67 3.35 -0.34 1.7 0 0 Z " fill="#88444C" transform="translate(80,134)"/>
<path d="M0 0 C0.33 0 0.66 0 1 0 C1 2.31 1 4.62 1 7 C-0.65 7 -2.3 7 -4 7 C-2.68 4.69 -1.36 2.38 0 0 Z " fill="#FCEFF4" transform="translate(127,124)"/>
<path d="M0 0 C1.98 0.495 1.98 0.495 4 1 C4 1.99 4 2.98 4 4 C2.35 3.67 0.7 3.34 -1 3 C-0.67 2.01 -0.34 1.02 0 0 Z " fill="#66272D" transform="translate(61,122)"/>
<path d="M0 0 C2.475 0.495 2.475 0.495 5 1 C5 1.99 5 2.98 5 4 C4.34 3.67 3.68 3.34 3 3 C2.34 4.32 1.68 5.64 1 7 C0.67 4.69 0.34 2.38 0 0 Z " fill="#7B333E" transform="translate(126,105)"/>
<path d="M0 0 C2 3 2 3 2 6 C0.35 6.33 -1.3 6.66 -3 7 C-2.01 4.69 -1.02 2.38 0 0 Z " fill="#78323E" transform="translate(106,63)"/>
</svg>
